<svg width="453" height="395" viewBox="0 0 453 395" fill="none" xmlns="http://www.w3.org/2000/svg">
<g clip-path="url(#clip0_230_196)">
<path d="M408.442 205.564C408.501 254.441 389.63 301.438 355.794 336.675C353.755 338.813 351.66 340.899 349.51 342.934C346.234 346.053 342.849 349.052 339.353 351.929C306.652 378.9 265.829 394.056 223.469 394.952C222.058 394.984 220.641 395 219.219 395C185.436 395 142.945 376.936 104.384 351.929C101.194 349.86 98.0318 347.744 94.8983 345.579C93.4337 344.577 91.9761 343.56 90.5257 342.529C75.6534 332.016 61.5366 320.471 48.2795 307.979C39.5996 299.824 31.4601 291.111 23.9129 281.895C-5.71591 245.308 -12.251 212.341 29.9899 205.564C34.991 204.765 39.8448 203.91 44.5513 203C51.3686 201.688 57.893 200.272 64.1245 198.75C72.5183 196.708 80.4044 194.494 87.7828 192.107C90.2647 191.307 92.6898 190.491 95.0581 189.659C130.072 177.348 153.506 161.294 169.458 143.875C172.163 140.926 174.658 137.942 176.941 134.922C180.434 130.326 183.607 125.495 186.437 120.462C190.343 113.47 193.625 106.146 196.242 98.5752L196.386 98.1593C209.078 61.5081 205.217 27.5121 219.219 16.1339C279.073 -32.5086 353.59 36.7629 388.566 118.452C390.329 122.569 391.987 126.71 393.54 130.876C394.238 132.736 394.911 134.601 395.559 136.469C397.263 141.337 398.809 146.217 400.198 151.11C400.73 152.976 401.238 154.841 401.721 156.703C402.238 158.713 402.733 160.718 403.191 162.723C406.594 177.401 408.442 191.877 408.442 205.564Z" fill="#C0C8FC" fill-opacity="0.29"/>
<path d="M223.469 394.952C222.058 394.984 220.641 395 219.219 395C185.436 395 142.945 376.936 104.384 351.929C101.194 349.86 98.0318 347.744 94.8983 345.579L97.6466 328.837L180.845 317.779L222.601 349.743L223.469 394.952Z" fill="#2F2E41"/>
<path d="M227.474 96H215.618C215.251 96.0001 214.899 96.1462 214.639 96.4061C214.38 96.6661 214.234 97.0186 214.234 97.3862V109.26C214.234 109.442 214.27 109.622 214.34 109.79C214.409 109.957 214.511 110.11 214.64 110.238C214.769 110.366 214.921 110.468 215.089 110.537C215.257 110.606 215.437 110.642 215.618 110.641H227.474C227.84 110.641 228.192 110.496 228.452 110.237C228.711 109.978 228.858 109.627 228.859 109.26V97.3862C228.858 97.0188 228.712 96.6668 228.452 96.4071C228.193 96.1474 227.841 96.001 227.474 96Z" fill="white"/>
<path d="M227.474 116.234H215.618C215.251 116.235 214.899 116.381 214.639 116.641C214.38 116.901 214.234 117.253 214.234 117.621V129.495C214.234 129.676 214.27 129.856 214.34 130.024C214.409 130.192 214.511 130.344 214.64 130.473C214.769 130.601 214.921 130.703 215.089 130.772C215.257 130.841 215.437 130.876 215.618 130.876H227.474C227.84 130.876 228.192 130.731 228.452 130.472C228.711 130.213 228.858 129.861 228.859 129.495V117.621C228.858 117.253 228.712 116.901 228.452 116.642C228.193 116.382 227.841 116.235 227.474 116.234Z" fill="#E6E6E6"/>
<path d="M227.474 136.469H215.618C215.251 136.469 214.899 136.615 214.639 136.875C214.38 137.135 214.234 137.487 214.234 137.855V149.724C214.233 149.906 214.269 150.086 214.338 150.255C214.408 150.423 214.51 150.576 214.638 150.705C214.767 150.834 214.92 150.936 215.088 151.005C215.256 151.075 215.436 151.11 215.618 151.11H227.474C227.841 151.11 228.193 150.964 228.453 150.704C228.713 150.444 228.859 150.091 228.859 149.724V137.855C228.858 137.488 228.712 137.136 228.452 136.876C228.193 136.616 227.841 136.47 227.474 136.469Z" fill="#E6E6E6"/>
<path d="M228.838 157.844C228.778 157.525 228.61 157.236 228.361 157.028C228.112 156.82 227.798 156.705 227.474 156.703H215.618C215.251 156.703 214.899 156.849 214.639 157.109C214.38 157.369 214.234 157.722 214.234 158.089V169.958C214.233 170.14 214.269 170.321 214.338 170.489C214.408 170.657 214.51 170.81 214.638 170.939C214.767 171.068 214.92 171.17 215.088 171.24C215.256 171.309 215.436 171.345 215.618 171.344H227.474C227.841 171.344 228.193 171.198 228.453 170.938C228.713 170.678 228.859 170.326 228.859 169.958V158.089C228.86 158.007 228.853 157.925 228.838 157.844Z" fill="#E6E6E6"/>
<path d="M228.012 177.044C227.842 176.974 227.659 176.937 227.474 176.938H215.618C215.436 176.937 215.256 176.973 215.088 177.042C214.92 177.112 214.767 177.214 214.638 177.343C214.51 177.472 214.408 177.625 214.338 177.793C214.269 177.961 214.233 178.142 214.234 178.324V190.193C214.233 190.375 214.268 190.555 214.337 190.724C214.407 190.893 214.509 191.046 214.637 191.175C214.766 191.304 214.919 191.406 215.087 191.475C215.256 191.544 215.436 191.58 215.618 191.579H227.474C227.841 191.579 228.193 191.433 228.453 191.173C228.713 190.913 228.859 190.56 228.859 190.193V178.324C228.858 178.051 228.778 177.784 228.627 177.557C228.477 177.329 228.263 177.151 228.012 177.044Z" fill="#E6E6E6"/>
<path d="M252.379 96H240.523C240.156 96.0001 239.804 96.1462 239.544 96.4061C239.284 96.6661 239.138 97.0186 239.138 97.3862V109.26C239.138 109.442 239.174 109.622 239.244 109.79C239.314 109.957 239.416 110.11 239.545 110.238C239.673 110.366 239.826 110.468 239.994 110.537C240.162 110.606 240.341 110.642 240.523 110.641H252.379C252.745 110.641 253.097 110.496 253.356 110.237C253.616 109.978 253.762 109.627 253.764 109.26V97.3862C253.762 97.0188 253.616 96.6668 253.357 96.4071C253.097 96.1474 252.746 96.001 252.379 96Z" fill="#E6E6E6"/>
<path d="M252.379 116.234H240.523C240.156 116.235 239.804 116.381 239.544 116.641C239.284 116.901 239.138 117.253 239.138 117.621V129.495C239.138 129.676 239.174 129.856 239.244 130.024C239.314 130.192 239.416 130.344 239.545 130.473C239.673 130.601 239.826 130.703 239.994 130.772C240.162 130.841 240.341 130.876 240.523 130.876H252.379C252.745 130.876 253.097 130.731 253.356 130.472C253.616 130.213 253.762 129.861 253.764 129.495V117.621C253.762 117.253 253.616 116.901 253.357 116.642C253.097 116.382 252.746 116.235 252.379 116.234Z" fill="#779BE7"/>
<path d="M252.379 136.469H240.523C240.156 136.469 239.804 136.615 239.544 136.875C239.284 137.135 239.138 137.487 239.138 137.855V149.724C239.138 149.906 239.173 150.086 239.243 150.255C239.312 150.423 239.414 150.576 239.543 150.705C239.672 150.834 239.824 150.936 239.993 151.005C240.161 151.075 240.341 151.11 240.523 151.11H252.379C252.746 151.11 253.098 150.964 253.358 150.704C253.617 150.444 253.763 150.091 253.764 149.724V137.855C253.762 137.488 253.616 137.136 253.357 136.876C253.097 136.616 252.746 136.47 252.379 136.469Z" fill="#779BE7"/>
<path d="M252.379 156.703H240.523C240.233 156.703 239.95 156.795 239.715 156.966C239.479 157.136 239.304 157.376 239.213 157.652C239.163 157.793 239.138 157.941 239.138 158.089V169.958C239.138 170.14 239.173 170.321 239.243 170.489C239.312 170.657 239.414 170.81 239.543 170.939C239.672 171.068 239.824 171.17 239.993 171.24C240.161 171.309 240.341 171.345 240.523 171.344H252.379C252.746 171.344 253.098 171.198 253.358 170.938C253.617 170.678 253.763 170.326 253.764 169.958V158.089C253.762 157.722 253.616 157.37 253.357 157.11C253.097 156.851 252.746 156.704 252.379 156.703Z" fill="#779BE7"/>
<path d="M252.379 176.938H240.523C240.341 176.937 240.161 176.973 239.993 177.042C239.824 177.112 239.672 177.214 239.543 177.343C239.414 177.472 239.312 177.625 239.243 177.793C239.173 177.961 239.138 178.142 239.138 178.324V190.193C239.138 190.375 239.173 190.555 239.243 190.724C239.312 190.892 239.414 191.045 239.543 191.174C239.672 191.302 239.824 191.405 239.993 191.474C240.161 191.544 240.341 191.579 240.523 191.579H252.379C252.746 191.579 253.098 191.433 253.358 191.173C253.617 190.913 253.763 190.56 253.764 190.193V178.324C253.763 177.956 253.617 177.604 253.358 177.344C253.098 177.084 252.746 176.938 252.379 176.938Z" fill="#E6E6E6"/>
<path d="M277.283 96H265.428C265.06 96.0001 264.708 96.1462 264.449 96.4061C264.189 96.6661 264.043 97.0186 264.043 97.3862V109.26C264.043 109.442 264.079 109.622 264.149 109.79C264.218 109.957 264.32 110.11 264.449 110.238C264.578 110.366 264.73 110.468 264.898 110.537C265.066 110.606 265.246 110.642 265.428 110.641H277.283C277.65 110.641 278.001 110.496 278.261 110.237C278.52 109.978 278.667 109.627 278.668 109.26V97.3862C278.667 97.0188 278.521 96.6668 278.261 96.4071C278.002 96.1474 277.65 96.001 277.283 96Z" fill="#779BE7"/>
<path d="M277.283 116.234H265.428C265.06 116.235 264.708 116.381 264.449 116.641C264.189 116.901 264.043 117.253 264.043 117.621V129.495C264.043 129.676 264.079 129.856 264.149 130.024C264.218 130.192 264.32 130.344 264.449 130.473C264.578 130.601 264.73 130.703 264.898 130.772C265.066 130.841 265.246 130.876 265.428 130.876H277.283C277.65 130.876 278.001 130.731 278.261 130.472C278.52 130.213 278.667 129.861 278.668 129.495V117.621C278.667 117.253 278.521 116.901 278.261 116.642C278.002 116.382 277.65 116.235 277.283 116.234Z" fill="#779BE7"/>
<path d="M277.283 136.469H265.428C265.06 136.469 264.708 136.615 264.449 136.875C264.189 137.135 264.043 137.487 264.043 137.855V149.724C264.042 149.906 264.078 150.086 264.147 150.255C264.217 150.423 264.319 150.576 264.448 150.705C264.576 150.834 264.729 150.936 264.897 151.005C265.065 151.075 265.246 151.11 265.428 151.11H277.283C277.65 151.11 278.003 150.964 278.262 150.704C278.522 150.444 278.668 150.091 278.668 149.724V137.855C278.667 137.488 278.521 137.136 278.261 136.876C278.002 136.616 277.65 136.47 277.283 136.469Z" fill="#E6E6E6"/>
<path d="M277.283 156.703H265.428C265.06 156.703 264.708 156.849 264.449 157.109C264.189 157.369 264.043 157.722 264.043 158.089V169.958C264.042 170.14 264.078 170.321 264.147 170.489C264.217 170.657 264.319 170.81 264.448 170.939C264.576 171.068 264.729 171.17 264.897 171.24C265.065 171.309 265.246 171.345 265.428 171.344H277.283C277.651 171.344 278.003 171.198 278.262 170.938C278.522 170.678 278.668 170.326 278.668 169.958V158.089C278.667 157.722 278.521 157.37 278.261 157.11C278.002 156.851 277.65 156.704 277.283 156.703Z" fill="#779BE7"/>
<path d="M277.283 176.938H265.428C265.246 176.937 265.065 176.973 264.897 177.042C264.729 177.112 264.576 177.214 264.448 177.343C264.319 177.472 264.217 177.625 264.147 177.793C264.078 177.961 264.042 178.142 264.043 178.324V190.193C264.042 190.375 264.078 190.555 264.147 190.724C264.217 190.892 264.319 191.045 264.448 191.174C264.576 191.302 264.729 191.405 264.897 191.474C265.065 191.544 265.246 191.579 265.428 191.579H277.283C277.651 191.579 278.003 191.433 278.262 191.173C278.522 190.913 278.668 190.56 278.668 190.193V178.324C278.668 177.956 278.522 177.604 278.262 177.344C278.003 177.084 277.651 176.938 277.283 176.938Z" fill="#779BE7"/>
<path d="M302.188 96H290.332C289.965 96.0001 289.613 96.1462 289.353 96.4061C289.093 96.6661 288.947 97.0186 288.947 97.3862V109.26C288.947 109.442 288.983 109.622 289.053 109.79C289.123 109.958 289.225 110.11 289.354 110.238C289.482 110.366 289.635 110.468 289.803 110.537C289.971 110.606 290.151 110.642 290.332 110.641H302.188C302.554 110.641 302.906 110.496 303.165 110.237C303.425 109.978 303.571 109.627 303.573 109.26V97.3862C303.572 97.0188 303.425 96.6668 303.166 96.4071C302.906 96.1474 302.555 96.001 302.188 96Z" fill="#779BE7"/>
<path d="M302.188 116.234H290.332C289.965 116.235 289.613 116.381 289.353 116.641C289.093 116.901 288.947 117.253 288.947 117.621V129.495C288.947 129.676 288.983 129.856 289.053 130.024C289.123 130.192 289.225 130.344 289.354 130.473C289.482 130.601 289.635 130.703 289.803 130.772C289.971 130.841 290.151 130.876 290.332 130.876H302.188C302.554 130.876 302.906 130.731 303.165 130.472C303.425 130.213 303.571 129.861 303.573 129.495V117.621C303.572 117.253 303.425 116.901 303.166 116.642C302.906 116.382 302.555 116.235 302.188 116.234Z" fill="white"/>
<path d="M302.188 136.469H290.332C289.965 136.469 289.613 136.615 289.353 136.875C289.093 137.135 288.947 137.487 288.947 137.855V149.724C288.947 149.906 288.983 150.086 289.052 150.255C289.121 150.423 289.223 150.576 289.352 150.705C289.481 150.834 289.634 150.936 289.802 151.005C289.97 151.075 290.15 151.11 290.332 151.11H302.188C302.555 151.11 302.907 150.964 303.167 150.704C303.426 150.444 303.572 150.091 303.573 149.724V137.855C303.572 137.488 303.425 137.136 303.166 136.876C302.906 136.616 302.555 136.47 302.188 136.469Z" fill="white"/>
<path d="M302.188 156.703H290.332C289.965 156.703 289.613 156.849 289.353 157.109C289.093 157.369 288.947 157.722 288.947 158.089V169.958C288.947 170.14 288.983 170.321 289.052 170.489C289.121 170.657 289.223 170.81 289.352 170.939C289.481 171.068 289.634 171.17 289.802 171.24C289.97 171.309 290.15 171.345 290.332 171.344H302.188C302.555 171.344 302.907 171.198 303.167 170.938C303.426 170.678 303.572 170.326 303.573 169.958V158.089C303.572 157.722 303.425 157.37 303.166 157.11C302.906 156.851 302.555 156.704 302.188 156.703Z" fill="#E6E6E6"/>
<path d="M302.188 176.938H290.332C290.15 176.937 289.97 176.973 289.802 177.042C289.634 177.112 289.481 177.214 289.352 177.343C289.223 177.472 289.121 177.625 289.052 177.793C288.983 177.961 288.947 178.142 288.947 178.324V190.193C288.947 190.375 288.983 190.555 289.052 190.724C289.121 190.892 289.223 191.045 289.352 191.174C289.481 191.302 289.634 191.405 289.802 191.474C289.97 191.544 290.15 191.579 290.332 191.579H302.188C302.555 191.579 302.907 191.433 303.167 191.173C303.427 190.913 303.572 190.56 303.573 190.193V178.324C303.572 177.956 303.426 177.604 303.167 177.344C302.907 177.084 302.555 176.938 302.188 176.938Z" fill="#779BE7"/>
<path d="M327.092 96H315.231C314.865 96.0012 314.514 96.1478 314.255 96.4077C313.997 96.6675 313.852 97.0194 313.852 97.3862V109.26C313.852 109.626 313.997 109.978 314.256 110.237C314.515 110.496 314.865 110.641 315.231 110.641H327.092C327.459 110.641 327.81 110.496 328.07 110.237C328.329 109.978 328.476 109.627 328.477 109.26V97.3862C328.476 97.0188 328.33 96.6668 328.07 96.4071C327.811 96.1474 327.459 96.001 327.092 96Z" fill="white"/>
<path d="M327.092 116.234H315.231C314.865 116.236 314.514 116.382 314.255 116.642C313.997 116.902 313.852 117.254 313.852 117.621V129.495C313.852 129.861 313.997 130.212 314.256 130.471C314.515 130.73 314.865 130.876 315.231 130.876H327.092C327.459 130.876 327.81 130.731 328.07 130.472C328.329 130.213 328.476 129.861 328.477 129.495V117.621C328.476 117.253 328.33 116.901 328.07 116.642C327.811 116.382 327.459 116.235 327.092 116.234Z" fill="white"/>
<path d="M327.092 136.469H315.231C314.865 136.47 314.514 136.617 314.255 136.877C313.997 137.136 313.852 137.488 313.852 137.855V149.724C313.851 149.906 313.887 150.086 313.956 150.254C314.025 150.422 314.126 150.575 314.254 150.703C314.383 150.832 314.535 150.934 314.702 151.004C314.87 151.074 315.05 151.11 315.231 151.11H327.092C327.46 151.11 327.812 150.964 328.071 150.704C328.331 150.444 328.477 150.091 328.477 149.724V137.855C328.476 137.488 328.33 137.136 328.07 136.876C327.811 136.616 327.459 136.47 327.092 136.469Z" fill="white"/>
<path d="M327.092 156.703H315.231C314.865 156.704 314.514 156.851 314.255 157.111C313.997 157.371 313.852 157.723 313.852 158.089V169.958C313.851 170.14 313.887 170.32 313.956 170.488C314.025 170.656 314.126 170.809 314.254 170.938C314.383 171.066 314.535 171.169 314.702 171.238C314.87 171.308 315.05 171.344 315.231 171.344H327.092C327.46 171.344 327.812 171.198 328.071 170.938C328.331 170.678 328.477 170.326 328.477 169.958V158.089C328.476 157.722 328.33 157.37 328.07 157.11C327.811 156.851 327.459 156.704 327.092 156.703Z" fill="#779BE7"/>
<path d="M327.092 176.938H315.231C315.05 176.938 314.87 176.974 314.702 177.044C314.535 177.113 314.383 177.216 314.254 177.344C314.126 177.473 314.025 177.626 313.956 177.794C313.887 177.962 313.851 178.142 313.852 178.324V190.193C313.851 190.374 313.887 190.554 313.956 190.722C314.025 190.891 314.126 191.043 314.254 191.172C314.383 191.301 314.535 191.403 314.702 191.473C314.87 191.543 315.05 191.579 315.231 191.579H327.092C327.46 191.579 327.812 191.433 328.071 191.173C328.331 190.913 328.477 190.56 328.477 190.193V178.324C328.477 177.956 328.331 177.604 328.071 177.344C327.812 177.084 327.46 176.938 327.092 176.938Z" fill="#E6E6E6"/>
<path d="M351.997 96H340.136C339.769 96.0012 339.419 96.1478 339.16 96.4077C338.901 96.6675 338.756 97.0194 338.756 97.3862V109.26C338.756 109.626 338.902 109.978 339.161 110.237C339.419 110.496 339.77 110.641 340.136 110.641H351.997C352.363 110.641 352.715 110.496 352.974 110.237C353.234 109.978 353.38 109.627 353.382 109.26V97.3862C353.381 97.0188 353.234 96.6669 352.975 96.4071C352.715 96.1474 352.364 96.001 351.997 96Z" fill="white"/>
<path d="M351.997 116.234H340.136C339.769 116.236 339.419 116.382 339.16 116.642C338.901 116.902 338.756 117.254 338.756 117.621V129.495C338.756 129.861 338.902 130.212 339.161 130.471C339.419 130.73 339.77 130.876 340.136 130.876H351.997C352.363 130.876 352.715 130.73 352.974 130.472C353.234 130.213 353.381 129.861 353.382 129.495V117.621C353.381 117.253 353.234 116.901 352.975 116.642C352.715 116.382 352.364 116.235 351.997 116.234Z" fill="white"/>
<path d="M351.997 136.469H340.136C339.769 136.47 339.419 136.617 339.16 136.877C338.901 137.136 338.756 137.488 338.756 137.855V149.724C338.756 149.906 338.791 150.086 338.86 150.254C338.929 150.422 339.031 150.575 339.159 150.703C339.287 150.832 339.439 150.934 339.607 151.004C339.775 151.074 339.954 151.11 340.136 151.11H351.997C352.364 151.11 352.716 150.964 352.976 150.704C353.236 150.444 353.382 150.091 353.382 149.724V137.855C353.381 137.488 353.234 137.136 352.975 136.876C352.715 136.616 352.364 136.47 351.997 136.469Z" fill="#779BE7"/>
<path d="M351.997 156.703H340.136C339.769 156.704 339.419 156.851 339.16 157.111C338.901 157.371 338.756 157.723 338.756 158.089V169.958C338.756 170.14 338.791 170.32 338.86 170.488C338.929 170.656 339.031 170.809 339.159 170.938C339.287 171.066 339.439 171.169 339.607 171.238C339.775 171.308 339.954 171.344 340.136 171.344H351.997C352.364 171.344 352.716 171.198 352.976 170.938C353.236 170.678 353.382 170.326 353.382 169.958V158.089C353.381 157.722 353.234 157.37 352.975 157.11C352.715 156.851 352.364 156.704 351.997 156.703Z" fill="#E6E6E6"/>
<path d="M351.997 176.938H340.136C339.954 176.938 339.775 176.974 339.607 177.044C339.439 177.113 339.287 177.216 339.159 177.344C339.031 177.473 338.929 177.626 338.86 177.794C338.791 177.962 338.756 178.142 338.756 178.324V190.193C338.756 190.374 338.791 190.554 338.86 190.722C338.929 190.891 339.031 191.043 339.159 191.172C339.287 191.301 339.439 191.403 339.607 191.473C339.775 191.543 339.954 191.579 340.136 191.579H351.997C352.364 191.579 352.716 191.433 352.976 191.173C353.236 190.913 353.382 190.56 353.382 190.193V178.324C353.382 177.956 353.236 177.604 352.976 177.344C352.716 177.084 352.364 176.938 351.997 176.938Z" fill="white"/>
<path d="M376.901 96H365.04C364.674 96.0012 364.323 96.1478 364.065 96.4077C363.806 96.6675 363.661 97.0194 363.661 97.3862V109.26C363.661 109.626 363.806 109.978 364.065 110.237C364.324 110.496 364.675 110.641 365.04 110.641H376.901C377.268 110.641 377.619 110.496 377.879 110.237C378.139 109.978 378.285 109.627 378.286 109.26V97.3862C378.285 97.0188 378.139 96.6669 377.879 96.4071C377.62 96.1474 377.268 96.001 376.901 96Z" fill="#779BE7"/>
<path d="M376.901 116.234H365.04C364.674 116.236 364.323 116.382 364.064 116.642C363.806 116.902 363.661 117.254 363.661 117.621V129.495C363.661 129.861 363.806 130.212 364.065 130.471C364.324 130.73 364.675 130.876 365.04 130.876H376.901C377.268 130.876 377.619 130.73 377.879 130.472C378.139 130.213 378.285 129.861 378.286 129.495V117.621C378.285 117.253 378.139 116.901 377.88 116.642C377.62 116.382 377.268 116.235 376.901 116.234Z" fill="#779BE7"/>
<path d="M376.901 136.469H365.04C364.674 136.47 364.323 136.617 364.065 136.877C363.806 137.136 363.661 137.488 363.661 137.855V149.724C363.66 149.906 363.696 150.086 363.765 150.254C363.834 150.422 363.935 150.575 364.064 150.703C364.192 150.832 364.344 150.934 364.512 151.004C364.679 151.074 364.859 151.11 365.04 151.11H376.901C377.269 151.11 377.621 150.964 377.88 150.704C378.14 150.444 378.286 150.091 378.286 149.724V137.855C378.285 137.488 378.139 137.136 377.88 136.876C377.62 136.616 377.268 136.47 376.901 136.469Z" fill="#E6E6E6"/>
<path d="M376.901 156.703H365.04C364.674 156.704 364.323 156.851 364.065 157.111C363.806 157.371 363.661 157.723 363.661 158.089V169.958C363.66 170.14 363.696 170.32 363.765 170.488C363.834 170.656 363.935 170.809 364.064 170.938C364.192 171.066 364.344 171.169 364.512 171.238C364.679 171.308 364.859 171.344 365.04 171.344H376.901C377.269 171.344 377.621 171.198 377.881 170.938C378.14 170.678 378.286 170.326 378.286 169.958V158.089C378.285 157.722 378.139 157.37 377.88 157.11C377.62 156.851 377.268 156.704 376.901 156.703Z" fill="white"/>
<path d="M376.901 176.938H365.04C364.859 176.938 364.679 176.974 364.512 177.044C364.344 177.113 364.192 177.216 364.064 177.344C363.935 177.473 363.834 177.626 363.765 177.794C363.696 177.962 363.66 178.142 363.661 178.324V190.193C363.66 190.374 363.696 190.554 363.765 190.722C363.834 190.891 363.935 191.043 364.064 191.172C364.192 191.301 364.344 191.403 364.512 191.473C364.679 191.543 364.859 191.579 365.04 191.579H376.901C377.269 191.579 377.621 191.433 377.881 191.173C378.14 190.913 378.286 190.56 378.286 190.193V178.324C378.286 177.956 378.14 177.604 377.881 177.344C377.621 177.084 377.269 176.938 376.901 176.938Z" fill="#779BE7"/>
<path d="M401.806 96H389.945C389.579 96.0012 389.228 96.1478 388.969 96.4077C388.711 96.6675 388.565 97.0194 388.566 97.3862V109.26C388.566 109.626 388.711 109.978 388.97 110.237C389.228 110.496 389.579 110.641 389.945 110.641H401.806C402.172 110.641 402.524 110.496 402.784 110.237C403.043 109.978 403.19 109.627 403.191 109.26V97.3862C403.19 97.0188 403.044 96.6669 402.784 96.4071C402.525 96.1474 402.173 96.001 401.806 96Z" fill="#779BE7"/>
<path d="M401.806 116.234H389.945C389.579 116.236 389.228 116.382 388.969 116.642C388.711 116.902 388.565 117.254 388.566 117.621V129.495C388.566 129.861 388.711 130.212 388.97 130.471C389.228 130.73 389.579 130.876 389.945 130.876H401.806C402.172 130.876 402.524 130.73 402.784 130.472C403.043 130.213 403.19 129.861 403.191 129.495V117.621C403.19 117.253 403.044 116.901 402.784 116.642C402.525 116.382 402.173 116.235 401.806 116.234Z" fill="#779BE7"/>
<path d="M401.806 136.469H389.945C389.579 136.47 389.228 136.617 388.969 136.877C388.711 137.136 388.565 137.488 388.566 137.855V149.724C388.565 149.906 388.6 150.086 388.669 150.254C388.738 150.422 388.84 150.575 388.968 150.703C389.096 150.832 389.248 150.934 389.416 151.004C389.584 151.074 389.763 151.11 389.945 151.11H401.806C402.173 151.11 402.525 150.964 402.785 150.704C403.045 150.444 403.191 150.091 403.191 149.724V137.855C403.19 137.488 403.044 137.136 402.784 136.876C402.525 136.616 402.173 136.47 401.806 136.469Z" fill="#E6E6E6"/>
<path d="M401.806 156.703H389.945C389.579 156.704 389.228 156.851 388.969 157.111C388.711 157.371 388.565 157.723 388.566 158.089V169.958C388.565 170.14 388.6 170.32 388.669 170.488C388.738 170.656 388.84 170.809 388.968 170.938C389.096 171.066 389.248 171.169 389.416 171.238C389.584 171.308 389.763 171.344 389.945 171.344H401.806C402.173 171.344 402.525 171.198 402.785 170.938C403.045 170.678 403.191 170.326 403.191 169.958V158.089C403.19 157.722 403.044 157.37 402.784 157.11C402.525 156.851 402.173 156.704 401.806 156.703Z" fill="#779BE7"/>
<path d="M401.806 176.938H389.945C389.763 176.938 389.584 176.974 389.416 177.044C389.248 177.113 389.096 177.216 388.968 177.344C388.84 177.473 388.738 177.626 388.669 177.794C388.6 177.962 388.565 178.142 388.566 178.324V190.193C388.565 190.374 388.6 190.554 388.669 190.722C388.738 190.891 388.84 191.043 388.968 191.172C389.096 191.301 389.248 191.403 389.416 191.473C389.584 191.543 389.763 191.579 389.945 191.579H401.806C402.173 191.579 402.525 191.433 402.785 191.173C403.045 190.913 403.191 190.56 403.191 190.193V178.324C403.191 177.956 403.045 177.604 402.785 177.344C402.525 177.084 402.173 176.938 401.806 176.938Z" fill="#779BE7"/>
<path d="M426.711 96H414.85C414.483 96.0012 414.132 96.1478 413.874 96.4077C413.615 96.6675 413.47 97.0194 413.47 97.3862V109.26C413.47 109.626 413.616 109.978 413.874 110.237C414.133 110.496 414.484 110.641 414.85 110.641H426.711C427.077 110.641 427.428 110.496 427.688 110.237C427.948 109.978 428.094 109.627 428.095 109.26V97.3862C428.094 97.0188 427.948 96.6669 427.689 96.4071C427.429 96.1474 427.078 96.001 426.711 96Z" fill="#E6E6E6"/>
<path d="M426.711 116.234H414.85C414.483 116.236 414.132 116.382 413.874 116.642C413.615 116.902 413.47 117.254 413.47 117.621V129.495C413.47 129.861 413.616 130.212 413.874 130.471C414.133 130.73 414.484 130.876 414.85 130.876H426.711C427.077 130.876 427.428 130.73 427.688 130.472C427.948 130.213 428.094 129.861 428.095 129.495V117.621C428.094 117.253 427.948 116.901 427.689 116.642C427.429 116.382 427.078 116.235 426.711 116.234Z" fill="#779BE7"/>
<path d="M426.711 136.469H414.85C414.483 136.47 414.132 136.617 413.874 136.877C413.615 137.136 413.47 137.488 413.47 137.855V149.724C413.47 149.906 413.505 150.086 413.574 150.254C413.643 150.422 413.745 150.575 413.873 150.703C414.001 150.832 414.153 150.934 414.321 151.004C414.488 151.074 414.668 151.11 414.85 151.11H426.711C427.078 151.11 427.43 150.964 427.69 150.704C427.949 150.444 428.095 150.091 428.095 149.724V137.855C428.094 137.488 427.948 137.136 427.689 136.876C427.429 136.616 427.078 136.47 426.711 136.469Z" fill="#779BE7"/>
<path d="M426.711 156.703H414.85C414.483 156.704 414.132 156.851 413.874 157.111C413.615 157.371 413.47 157.723 413.47 158.089V169.958C413.47 170.14 413.505 170.32 413.574 170.488C413.643 170.656 413.745 170.809 413.873 170.938C414.001 171.066 414.153 171.169 414.321 171.238C414.488 171.308 414.668 171.344 414.85 171.344H426.711C427.078 171.344 427.43 171.198 427.69 170.938C427.949 170.678 428.095 170.326 428.095 169.958V158.089C428.094 157.722 427.948 157.37 427.689 157.11C427.429 156.851 427.078 156.704 426.711 156.703Z" fill="#779BE7"/>
<path d="M426.711 176.938H414.85C414.668 176.938 414.488 176.974 414.321 177.044C414.153 177.113 414.001 177.216 413.873 177.344C413.745 177.473 413.643 177.626 413.574 177.794C413.505 177.962 413.47 178.142 413.47 178.324V190.193C413.47 190.374 413.505 190.554 413.574 190.722C413.643 190.891 413.745 191.043 413.873 191.172C414.001 191.301 414.153 191.403 414.321 191.473C414.488 191.543 414.668 191.579 414.85 191.579H426.711C427.078 191.579 427.43 191.433 427.69 191.173C427.949 190.913 428.095 190.56 428.095 190.193V178.324C428.095 177.956 427.949 177.604 427.69 177.344C427.43 177.084 427.078 176.938 426.711 176.938Z" fill="#E6E6E6"/>
<path d="M451.615 96H439.754C439.388 96.0012 439.037 96.1479 438.778 96.4077C438.52 96.6675 438.374 97.0194 438.375 97.3862V109.26C438.375 109.626 438.52 109.978 438.779 110.237C439.037 110.496 439.388 110.641 439.754 110.641H451.615C451.982 110.641 452.333 110.496 452.593 110.237C452.852 109.978 452.999 109.627 453 109.26V97.3862C452.999 97.0188 452.853 96.6669 452.593 96.4071C452.334 96.1474 451.982 96.001 451.615 96Z" fill="#E6E6E6"/>
<path d="M451.615 116.234H439.754C439.388 116.236 439.037 116.382 438.778 116.642C438.52 116.902 438.374 117.254 438.375 117.621V129.495C438.375 129.861 438.52 130.212 438.779 130.471C439.037 130.73 439.388 130.876 439.754 130.876H451.615C451.982 130.876 452.333 130.73 452.593 130.472C452.852 130.213 452.999 129.861 453 129.495V117.621C452.999 117.253 452.853 116.901 452.593 116.642C452.334 116.382 451.982 116.235 451.615 116.234Z" fill="#E6E6E6"/>
<path d="M451.615 136.469H439.754C439.388 136.47 439.037 136.617 438.778 136.877C438.52 137.136 438.374 137.488 438.375 137.855V149.724C438.374 149.906 438.409 150.086 438.479 150.254C438.548 150.422 438.649 150.575 438.777 150.703C438.905 150.832 439.058 150.934 439.225 151.004C439.393 151.074 439.573 151.11 439.754 151.11H451.615C451.982 151.11 452.335 150.964 452.594 150.704C452.854 150.444 453 150.091 453 149.724V137.855C452.999 137.488 452.853 137.136 452.593 136.876C452.334 136.616 451.982 136.47 451.615 136.469Z" fill="#779BE7"/>
<path d="M451.615 156.703H439.754C439.388 156.704 439.037 156.851 438.778 157.111C438.52 157.371 438.374 157.723 438.375 158.089V169.958C438.374 170.14 438.409 170.32 438.479 170.488C438.548 170.656 438.649 170.809 438.777 170.938C438.905 171.066 439.058 171.169 439.225 171.238C439.393 171.308 439.573 171.344 439.754 171.344H451.615C451.982 171.344 452.335 171.198 452.594 170.938C452.854 170.678 453 170.326 453 169.958V158.089C452.999 157.722 452.853 157.37 452.593 157.11C452.334 156.851 451.982 156.704 451.615 156.703Z" fill="#E6E6E6"/>
<path d="M451.615 176.938H439.754C439.573 176.938 439.393 176.974 439.225 177.044C439.058 177.113 438.905 177.216 438.777 177.344C438.649 177.473 438.548 177.626 438.479 177.794C438.409 177.962 438.374 178.142 438.375 178.324V190.193C438.374 190.374 438.409 190.554 438.479 190.722C438.548 190.891 438.649 191.043 438.777 191.172C438.905 191.301 439.058 191.403 439.225 191.473C439.393 191.543 439.573 191.579 439.754 191.579H451.615C451.982 191.579 452.335 191.433 452.594 191.173C452.854 190.913 453 190.56 453 190.193V178.324C453 177.956 452.854 177.604 452.594 177.344C452.335 177.084 451.982 176.938 451.615 176.938Z" fill="#E6E6E6"/>
<path d="M179.006 351.93H178.675L178.958 351.893L179.006 351.93Z" fill="#2F2E41"/>
<path d="M150.628 130.66C170.725 130.66 187.017 114.35 187.017 94.2315C187.017 74.1127 170.725 57.8032 150.628 57.8032C130.531 57.8032 114.24 74.1127 114.24 94.2315C114.24 114.35 130.531 130.66 150.628 130.66Z" fill="#FFD3D3"/>
<path d="M182.495 67.5229C182.495 67.5229 192.012 49.3088 171.074 47.6529C171.074 47.6529 153.223 31.4428 135.029 44.6895C135.029 44.6895 125.105 44.6895 119.678 55.932C119.678 55.932 111.873 52.9686 110.158 60.8995C110.158 60.8995 104.446 77.4579 110.158 92.3604C115.869 107.263 117.766 108.919 117.766 108.919C117.766 108.919 108.381 77.6748 131.225 76.0189C154.069 74.3631 179.632 60.0716 181.535 78.2857C183.439 96.4998 186.304 100.988 186.304 100.988C186.304 100.988 204.386 74.9742 182.495 67.5229Z" fill="#573C28"/>
<path d="M244.757 184.008L244.64 184.626L243.324 191.579L234.233 239.672L233.695 242.503L232.566 248.491L231.021 256.66L227.597 274.761L226.617 279.949L226.249 281.895L226.121 282.578L225.104 287.947L224.795 289.568L222.313 307.979L220.145 324.022L227.4 331.284L223.075 335.614L220.236 351.892L220.241 351.929H104.384C99.6971 348.89 95.0776 345.757 90.5257 342.529L91.4791 335.384C91.4791 335.384 94.7598 322.625 93.3804 321.1C92.0063 319.576 88.9917 316.851 88.9917 316.851L92.7892 307.979L93.3165 306.747L92.4324 288.389L92.4111 287.947L92.1182 281.895L92.0809 281.117L92.0223 279.949L90.8985 256.659L90.8772 256.276L90.5364 249.216L90.2168 242.503L90.0783 239.672L88.7095 211.344L87.7828 192.107L86.9732 175.359L90.2274 174.256L125.033 162.414L139.451 143.651L169.458 143.875L184.147 143.987L208.657 166.743L214.234 169.409L214.276 169.43L218.276 171.344L228.417 176.191L239.138 181.32L244.64 183.949L244.757 184.008Z" fill="#CACACA"/>
<path d="M143.328 297.278C141.13 298.131 138.771 298.491 136.418 298.332C134.065 298.174 131.775 297.501 129.711 296.36C127.646 295.22 125.856 293.641 124.467 291.733C123.078 289.825 122.123 287.636 121.671 285.319L64.9171 277.258L84.6462 254.917L135.516 265.997C139.454 265.494 143.44 266.454 146.718 268.697C149.996 270.939 152.338 274.308 153.301 278.164C154.264 282.019 153.781 286.095 151.943 289.618C150.105 293.141 147.04 295.867 143.328 297.278V297.278Z" fill="#FFD3D3"/>
<path d="M118.024 256.66C116.973 255.325 115.484 254.406 113.822 254.063L90.5363 249.216L88.1449 248.72C86.7552 248.43 85.4423 247.849 84.2923 247.016C83.1423 246.182 82.181 245.115 81.4714 243.884C80.7353 242.592 80.2899 241.155 80.1665 239.672C80.0555 238.324 80.2167 236.968 80.6405 235.684L88.7095 211.344L93.9449 195.551C94.5794 193.646 94.9539 191.665 95.0581 189.659C95.3498 184.11 93.6348 178.642 90.2273 174.256C87.2316 170.4 83.0766 167.612 78.3761 166.302C73.6756 164.993 68.679 165.231 64.1244 166.983C63.9913 167.031 63.8528 167.084 63.7197 167.138C60.4533 168.443 57.5351 170.491 55.1956 173.12C52.856 175.749 51.1593 178.887 50.2394 182.285L44.5512 203L32.818 245.703C31.6434 249.981 31.4061 254.463 32.1223 258.842C32.8386 263.221 34.4914 267.393 36.9676 271.073C39.4439 274.753 42.6852 277.854 46.4696 280.163C50.2541 282.473 54.4923 283.937 58.8943 284.455L92.4323 288.389L107.952 290.213C109.747 290.429 111.557 289.96 113.022 288.9C114.487 287.839 115.499 286.266 115.856 284.492C115.881 284.395 115.901 284.297 115.915 284.199L116.288 281.895L119.446 262.498L119.478 262.301C119.643 261.311 119.598 260.298 119.348 259.326C119.097 258.354 118.646 257.446 118.024 256.66Z" fill="#CACACA"/>
<path d="M179.478 297.9C181.775 298.434 184.161 298.457 186.468 297.968C188.775 297.479 190.947 296.489 192.831 295.069C194.714 293.649 196.264 291.832 197.37 289.747C198.477 287.663 199.113 285.36 199.235 283.003L254.286 267.011L231.607 247.678L182.806 265.828C178.837 265.886 175.026 267.4 172.096 270.083C169.167 272.766 167.322 276.431 166.912 280.384C166.502 284.338 167.555 288.304 169.871 291.533C172.187 294.761 175.605 297.027 179.478 297.9V297.9Z" fill="#FFD3D3"/>
<path d="M281.619 231.237L255.436 170.913C253.294 165.96 249.469 161.927 244.64 159.529C243.147 158.793 241.579 158.221 239.964 157.823C239.713 157.759 239.463 157.7 239.213 157.652C235.787 156.904 232.234 156.97 228.838 157.844C225.733 158.643 222.832 160.087 220.323 162.083C217.814 164.08 215.754 166.583 214.276 169.43C214.26 169.454 214.246 169.479 214.234 169.505C212.583 172.701 211.706 176.241 211.671 179.839C211.637 183.436 212.447 186.992 214.037 190.219L214.361 190.87L232.864 228.07C233.496 229.342 233.852 230.734 233.909 232.153C233.966 233.573 233.722 234.988 233.194 236.307C232.666 237.625 231.865 238.817 230.845 239.804C229.824 240.791 228.606 241.551 227.272 242.034L225.972 242.504L202.602 250.954C200.848 251.581 199.405 252.864 198.578 254.534C197.75 256.204 197.602 258.13 198.165 259.907L198.224 260.093L204.775 281.079C204.806 281.175 204.838 281.271 204.876 281.367C204.933 281.548 205.004 281.725 205.089 281.895C205.785 283.458 207.016 284.722 208.559 285.458C210.103 286.194 211.858 286.354 213.509 285.91L226.121 282.578L228.694 281.895L261.262 273.284C265.548 272.151 269.538 270.103 272.96 267.282C276.381 264.462 279.153 260.934 281.087 256.941C283.02 252.948 284.068 248.584 284.16 244.147C284.252 239.711 283.385 235.307 281.619 231.237L281.619 231.237Z" fill="#CACACA"/>
<path d="M23.9129 281.895C31.4601 291.111 39.5996 299.824 48.2795 307.979H289.001C291.32 307.982 293.543 308.907 295.182 310.549C296.822 312.191 297.744 314.417 297.746 316.739L298.092 377.805C312.901 370.994 326.769 362.296 339.353 351.929C342.847 349.055 346.232 346.057 349.51 342.934C351.656 340.898 353.751 338.811 355.794 336.675C371.114 320.698 383.52 302.158 392.448 281.895H23.9129Z" fill="#3F3D56"/>
<path d="M355.794 336.675C353.755 338.813 351.66 340.899 349.51 342.934H298.268V336.675H355.794Z" fill="white"/>
<path d="M244.278 136.469C244.025 136.001 243.65 135.61 243.193 135.338C242.737 135.066 242.215 134.922 241.684 134.923H67.0751C66.2923 134.925 65.5421 135.237 64.9891 135.792C64.436 136.346 64.1251 137.098 64.1245 137.882V242.504H244.64V137.882C244.643 137.387 244.518 136.901 244.278 136.469Z" fill="#3F3D56"/>
<path d="M63.9664 239.671V252.581C63.9663 253.117 64.0717 253.647 64.2762 254.141C64.4808 254.636 64.7807 255.085 65.1587 255.463C65.5368 255.842 65.9856 256.142 66.4795 256.347C66.9735 256.552 67.5029 256.657 68.0375 256.657H134.665V282.136H133.779C133.71 282.136 133.641 282.15 133.577 282.177C133.513 282.203 133.455 282.242 133.405 282.291C133.356 282.34 133.317 282.399 133.291 282.463C133.264 282.527 133.251 282.596 133.251 282.666V284.438C133.251 284.507 133.264 284.576 133.291 284.64C133.317 284.705 133.356 284.763 133.405 284.812C133.455 284.861 133.513 284.9 133.577 284.927C133.641 284.954 133.71 284.967 133.779 284.967H175.141C175.21 284.967 175.279 284.954 175.343 284.927C175.407 284.9 175.465 284.861 175.515 284.812C175.564 284.763 175.603 284.705 175.629 284.64C175.656 284.576 175.669 284.507 175.669 284.438V282.666C175.669 282.596 175.656 282.527 175.629 282.463C175.603 282.399 175.564 282.34 175.515 282.291C175.465 282.242 175.407 282.203 175.343 282.177C175.279 282.15 175.21 282.136 175.141 282.136H174.255V256.657H240.882C241.417 256.657 241.947 256.552 242.44 256.347C242.934 256.142 243.383 255.842 243.761 255.463C244.139 255.085 244.439 254.636 244.644 254.141C244.848 253.647 244.954 253.117 244.954 252.581V239.671H63.9664Z" fill="#3F3D56"/>
<path d="M152.273 202.616C161.482 202.616 168.947 195.143 168.947 185.924C168.947 176.705 161.482 169.232 152.273 169.232C143.064 169.232 135.599 176.705 135.599 185.924C135.599 195.143 143.064 202.616 152.273 202.616Z" fill="#779BE7"/>
<path d="M194.756 92.241H192.093C192.093 72.0865 172.169 58.8795 152.068 58.8688C149.144 58.8603 146.227 59.1443 143.36 59.7166C140.132 60.3618 136.782 61.1349 133.491 62.1426C120.511 66.1255 108.474 73.8247 108.474 92.241C108.472 95.8175 108.926 99.3797 109.827 102.841L107.249 103.513C106.293 99.8318 105.81 96.0441 105.811 92.241C105.811 76.1494 112.41 65.0964 123.808 58.5063C129.8 55.0406 137.113 52.8065 145.49 51.7188C148.977 51.2545 152.501 51.1473 156.009 51.3989C179.124 53.0624 194.756 70.8069 194.756 92.241Z" fill="#779BE7"/>
<path d="M199.193 93.7179L198.144 85.9547C197.885 83.9942 196.941 82.1885 195.481 80.8574C194.543 79.9896 193.42 79.3467 192.198 78.9772C190.975 78.6077 189.684 78.5214 188.424 78.7247L186.757 78.9539C186.3 79.014 185.861 79.1642 185.463 79.3958C185.065 79.6274 184.717 79.9357 184.44 80.3029C184.16 80.6689 183.955 81.0867 183.837 81.5324C183.719 81.9781 183.69 82.4427 183.753 82.8995L186.176 100.783C186.276 101.511 186.602 102.19 187.109 102.723C187.615 103.256 188.277 103.616 188.999 103.752C189.213 103.795 189.43 103.817 189.649 103.816C189.805 103.816 189.962 103.806 190.117 103.784L191.981 103.534C193.118 103.383 194.212 103.001 195.195 102.411C196.179 101.822 197.032 101.037 197.702 100.105C197.845 99.9028 197.984 99.6949 198.112 99.4816C199.11 97.737 199.491 95.7062 199.193 93.7179Z" fill="#779BE7"/>
<path d="M185.681 79.2792C185.192 79.517 184.766 79.8679 184.44 80.3029C184.16 80.6689 183.955 81.0868 183.837 81.5324C183.719 81.9781 183.69 82.4427 183.753 82.8995L186.176 100.783C186.276 101.511 186.602 102.19 187.109 102.723C187.615 103.256 188.277 103.616 188.999 103.752L185.681 79.2792Z" fill="white"/>
<path d="M199.193 93.7179L198.144 85.9547C197.885 83.9942 196.941 82.1885 195.481 80.8574L197.893 98.6498C197.929 98.9355 198.003 99.2151 198.112 99.4816C199.11 97.737 199.491 95.7062 199.193 93.7179Z" fill="#3F3D56"/>
<path d="M190.9 99.3114C191.629 99.2124 191.995 97.4763 191.719 95.4337C191.442 93.3912 190.627 91.8156 189.898 91.9145C189.169 92.0135 188.803 93.7495 189.08 95.7921C189.357 97.8347 190.172 99.4103 190.9 99.3114Z" fill="#3F3D56"/>
<path d="M189.303 89.714C190.031 89.6151 190.398 87.879 190.121 85.8364C189.844 83.7938 189.029 82.2182 188.3 82.3172C187.572 82.4161 187.205 84.1522 187.482 86.1948C187.759 88.2374 188.574 89.813 189.303 89.714Z" fill="#3F3D56"/>
<path d="M199.422 93.4463C200.151 93.3474 200.517 91.6113 200.24 89.5687C199.963 87.5261 199.148 85.9505 198.42 86.0495C197.691 86.1484 197.325 87.8845 197.601 89.9271C197.878 91.9697 198.693 93.5453 199.422 93.4463Z" fill="#3F3D56"/>
<path d="M152.068 58.8688C149.144 58.8603 146.227 59.1443 143.36 59.7166C140.132 60.3618 136.782 61.1349 133.491 62.1426C128.351 61.892 124.57 60.559 123.808 58.5063C129.8 55.0406 137.113 52.8065 145.49 51.7188C148.977 51.2545 152.501 51.1473 156.009 51.3989C156.381 51.6168 156.702 51.911 156.951 52.262C157.201 52.6131 157.374 53.0131 157.458 53.4357C157.708 55.2912 155.594 57.2639 152.068 58.8688Z" fill="#3F3D56"/>
<path d="M118.067 110.743L113.966 93.6752C113.819 93.0595 113.495 92.5007 113.032 92.0691C112.57 91.6375 111.99 91.3522 111.366 91.2492C111.19 91.2218 111.012 91.2075 110.834 91.2066C110.583 91.2075 110.332 91.2379 110.088 91.2972L108.501 91.6811C106.458 92.1759 104.694 93.462 103.596 95.2573C102.499 97.0526 102.158 99.2104 102.648 101.257L104.485 108.914C104.905 110.716 105.904 112.331 107.329 113.51C107.56 113.696 107.802 113.869 108.054 114.027C108.946 114.587 109.942 114.963 110.982 115.131C112.022 115.3 113.086 115.258 114.109 115.008L115.691 114.624C116.109 114.526 116.503 114.343 116.847 114.086C117.358 113.712 117.748 113.195 117.965 112.6C118.182 112.005 118.217 111.358 118.067 110.743Z" fill="#779BE7"/>
<path d="M109.469 107.567C110.184 107.395 110.373 105.63 109.891 103.626C109.41 101.622 108.44 100.137 107.725 100.31C107.01 100.482 106.821 102.246 107.302 104.25C107.784 106.254 108.754 107.739 109.469 107.567Z" fill="#3F3D56"/>
<path d="M104.143 109.167C104.858 108.994 105.047 107.23 104.565 105.226C104.084 103.222 103.114 101.737 102.399 101.909C101.684 102.081 101.495 103.846 101.976 105.85C102.458 107.854 103.428 109.339 104.143 109.167Z" fill="#3F3D56"/>
<path d="M118.328 110.679L114.227 93.6112C114.067 92.945 113.714 92.3408 113.213 91.8741C112.712 91.4075 112.084 91.0993 111.409 90.9879L117.007 114.299C117.56 113.894 117.98 113.333 118.215 112.689C118.45 112.045 118.489 111.345 118.328 110.679Z" fill="white"/>
<path d="M103.574 97.8767C103.461 97.4021 103.249 96.9569 102.951 96.5704C102.375 98.0651 102.269 99.7005 102.648 101.257L104.485 108.914C104.905 110.716 105.904 112.331 107.329 113.51L103.574 97.8767Z" fill="#3F3D56"/>
</g>
<defs>
<clipPath id="clip0_230_196">
<rect width="453" height="395" fill="white"/>
</clipPath>
</defs>
</svg>
