<svg width="555" height="554" viewBox="0 0 555 554" fill="none" xmlns="http://www.w3.org/2000/svg">
<g opacity="0.35">
<circle cx="276.277" cy="277.815" r="275.109" stroke="black" stroke-opacity="0.75"/>
<circle r="4.89247" transform="matrix(1 0 0 -1 77.3163 468.622)" fill="black"/>
<circle r="4.89247" transform="matrix(1 0 0 -1 18.6068 180.781)" fill="black"/>
<circle r="4.89247" transform="matrix(1 0 0 -1 549.44 250.907)" fill="black"/>
<circle r="4.89247" transform="matrix(1 0 0 -1 234.691 5.46797)" fill="black"/>
<circle r="4.89247" transform="matrix(1 0 0 -1 412.451 517.547)" fill="black"/>
<circle cx="91.9938" cy="73.1471" r="3.26165" fill="black"/>
<circle r="4.07706" transform="matrix(1 0 0 -1 4.74478 321.848)" fill="black"/>
<circle r="4.07706" transform="matrix(1 0 0 -1 414.897 39.7154)" fill="black"/>
<path d="M205.336 542.416C205.336 540.39 203.693 538.747 201.667 538.747C199.64 538.747 197.997 540.39 197.997 542.416C197.997 544.443 199.64 546.086 201.667 546.086C203.693 546.086 205.336 544.443 205.336 542.416Z" fill="black"/>
<path d="M528.239 396.458C528.239 394.431 526.596 392.788 524.57 392.788C522.543 392.788 520.9 394.431 520.9 396.458C520.9 398.484 522.543 400.127 524.57 400.127C526.596 400.127 528.239 398.484 528.239 396.458Z" fill="black"/>
<path d="M512.746 131.449C512.746 129.423 511.103 127.78 509.077 127.78C507.05 127.78 505.407 129.423 505.407 131.449C505.407 133.476 507.05 135.118 509.077 135.118C511.103 135.118 512.746 133.476 512.746 131.449Z" fill="black"/>
</g>
</svg>
