<svg width="32" height="38" viewBox="0 0 32 38" fill="none" xmlns="http://www.w3.org/2000/svg">
<path d="M27.3135 4.89171C25.3279 2.819 22.8544 1.3284 20.1413 0.569407C17.4284 -0.189509 14.5718 -0.189806 11.8588 0.568538C9.1457 1.32686 6.67186 2.81717 4.68584 4.88936C2.69986 6.96162 1.27175 9.54295 0.544934 12.3739C-0.181814 15.2048 -0.181707 18.1853 0.545629 21.0163C1.27295 23.8471 2.70163 26.4282 4.68796 28.5001L12.2292 36.3697C13.2291 37.4135 14.5857 38 16.0004 38C17.4148 38 18.7713 37.4135 19.7715 36.3697L27.3135 28.5001C29.2994 26.4281 30.7277 23.8472 31.4547 21.0167C32.1818 18.1862 32.1818 15.206 31.4547 12.3754C30.7278 9.54491 29.2996 6.96388 27.3135 4.89195L27.3135 4.89171ZM16.0007 10.0098C17.268 10.0098 18.5068 10.4019 19.5607 11.1366C20.6144 11.8712 21.4357 12.9154 21.9207 14.1372C22.4057 15.3589 22.5325 16.7032 22.2853 18.0003C22.0381 19.2973 21.4278 20.4886 20.5316 21.4236C19.6356 22.3587 18.4938 22.9955 17.2509 23.2534C16.0079 23.5113 14.7196 23.3789 13.5487 22.8728C12.3777 22.3668 11.3771 21.5099 10.673 20.4103C9.96887 19.3108 9.59321 18.0182 9.59321 16.696C9.59516 14.9235 10.2709 13.224 11.4721 11.9705C12.6733 10.7171 14.302 10.012 16.0009 10.0098H16.0007Z" fill="black"/>
</svg>
