<svg width="149" height="37" viewBox="0 0 149 37" fill="none" xmlns="http://www.w3.org/2000/svg">
<path d="M7.96414 12.9029C5.91917 12.9029 4.89668 13.5783 4.89668 14.9291C4.89668 15.5294 5.14996 15.9891 5.65651 16.308C6.16306 16.627 7.34502 17.0866 9.20238 17.687C11.0785 18.2873 12.3918 18.9721 13.1422 19.7413C13.8927 20.4918 14.2679 21.655 14.2679 23.2309C14.2679 25.2384 13.6582 26.758 12.4387 27.7899C11.2192 28.8218 9.62451 29.3377 7.65458 29.3377C6.19121 29.3377 4.39951 29.1126 2.27949 28.6623L1.26638 28.4653L1.66037 25.4541C4.17437 25.7918 6.0974 25.9607 7.42945 25.9607C9.41814 25.9607 10.4125 25.1352 10.4125 23.4842C10.4125 22.8838 10.178 22.4148 9.70894 22.0771C9.25867 21.7394 8.34875 21.3736 6.97918 20.9796C4.80287 20.3605 3.26445 19.6288 2.36392 18.7845C1.48214 17.9215 1.04125 16.7302 1.04125 15.2105C1.04125 13.2969 1.62285 11.871 2.78604 10.9329C3.94924 9.99487 5.54394 9.52584 7.57016 9.52584C8.95849 9.52584 10.722 9.71346 12.8608 10.0887L13.8739 10.2857L13.5644 13.3531C10.919 13.053 9.05229 12.9029 7.96414 12.9029ZM17.0524 34.9098V14.9291H20.7953V15.6889C22.0148 14.9572 23.0842 14.5914 24.0035 14.5914C25.8983 14.5914 27.2961 15.1636 28.1966 16.308C29.0971 17.4337 29.5474 19.3567 29.5474 22.0771C29.5474 24.7975 29.0502 26.6924 28.0559 27.7618C27.0615 28.8124 25.4293 29.3377 23.1592 29.3377C22.5401 29.3377 21.8741 29.2814 21.1611 29.1689L20.8234 29.1126V34.9098H17.0524ZM23.2718 17.9684C22.5776 17.9684 21.8741 18.1091 21.1611 18.3905L20.8234 18.5312V25.9044C21.6677 26.017 22.3525 26.0732 22.8778 26.0732C23.9659 26.0732 24.707 25.7543 25.101 25.1164C25.5137 24.4785 25.7201 23.3904 25.7201 21.852C25.7201 19.2629 24.904 17.9684 23.2718 17.9684ZM35.4556 23.5686C35.4744 24.4316 35.6995 25.0601 36.131 25.4541C36.5813 25.8294 37.2192 26.017 38.0447 26.017C39.7895 26.017 41.3467 25.9607 42.7162 25.8481L43.5042 25.7637L43.5605 28.5497C41.403 29.075 39.4518 29.3377 37.707 29.3377C35.587 29.3377 34.0486 28.7749 33.0917 27.6492C32.1349 26.5235 31.6565 24.6943 31.6565 22.1615C31.6565 17.1148 33.7296 14.5914 37.8758 14.5914C41.9658 14.5914 44.0108 16.7114 44.0108 20.9514L43.7293 23.5686H35.4556ZM40.296 20.6982C40.296 19.5725 40.1178 18.7939 39.7613 18.3624C39.4049 17.9121 38.7764 17.687 37.8758 17.687C36.9941 17.687 36.3656 17.9215 35.9903 18.3905C35.6339 18.8408 35.4463 19.61 35.4275 20.6982H40.296ZM50.4768 29H46.7058V14.9291H50.4487V15.717C51.7244 14.9666 52.897 14.5914 53.9664 14.5914C55.8425 14.5914 57.137 15.1448 57.85 16.2517C58.5629 17.3587 58.9193 19.0659 58.9193 21.3736V29H55.1483V21.4861C55.1483 20.2854 55.0076 19.4036 54.7262 18.8408C54.4448 18.2592 53.882 17.9684 53.0377 17.9684C52.2685 17.9684 51.5274 18.0997 50.8145 18.3624L50.4768 18.475V29ZM67.5233 14.5914C68.4989 14.5914 69.7465 14.7415 71.2661 15.0416L72.026 15.2105L71.9134 18.1935C70.4313 18.0434 69.3337 17.9684 68.6208 17.9684C67.3263 17.9684 66.4633 18.2498 66.0318 18.8127C65.619 19.3567 65.4126 20.398 65.4126 21.9364C65.4126 23.4748 65.619 24.5348 66.0318 25.1164C66.4633 25.6793 67.3357 25.9607 68.6489 25.9607L71.9134 25.7355L72.026 28.7467C70.0185 29.1407 68.4895 29.3377 67.4389 29.3377C65.3564 29.3377 63.8555 28.7561 62.9362 27.5929C62.0356 26.411 61.5853 24.5254 61.5853 21.9364C61.5853 19.3473 62.0544 17.4806 62.9924 16.3362C63.9305 15.173 65.4408 14.5914 67.5233 14.5914ZM77.8058 23.5686C77.8246 24.4316 78.0497 25.0601 78.4812 25.4541C78.9315 25.8294 79.5694 26.017 80.3949 26.017C82.1397 26.017 83.6968 25.9607 85.0664 25.8481L85.8544 25.7637L85.9107 28.5497C83.7531 29.075 81.802 29.3377 80.0572 29.3377C77.9371 29.3377 76.3987 28.7749 75.4419 27.6492C74.4851 26.5235 74.0067 24.6943 74.0067 22.1615C74.0067 17.1148 76.0798 14.5914 80.226 14.5914C84.316 14.5914 86.3609 16.7114 86.3609 20.9514L86.0795 23.5686H77.8058ZM82.6462 20.6982C82.6462 19.5725 82.468 18.7939 82.1115 18.3624C81.7551 17.9121 81.1266 17.687 80.226 17.687C79.3442 17.687 78.7157 17.9215 78.3405 18.3905C77.9841 18.8408 77.7964 19.61 77.7777 20.6982H82.6462ZM89.056 29V14.9291H92.7988V16.4206C94.3748 15.4825 95.8757 14.8728 97.3015 14.5914V18.3905C95.7819 18.7095 94.478 19.0378 93.3898 19.3755L92.827 19.5725V29H89.056Z" fill="black"/>
<path d="M110.527 29H104.082V9.86355H110.527C112.178 9.86355 113.538 10.0418 114.608 10.3982C115.677 10.7359 116.502 11.3082 117.084 12.1149C117.684 12.9029 118.097 13.8409 118.322 14.9291C118.547 15.9985 118.66 17.3962 118.66 19.1222C118.66 20.8482 118.557 22.2835 118.35 23.4279C118.144 24.5536 117.75 25.5667 117.168 26.4672C116.606 27.349 115.78 27.9963 114.692 28.409C113.604 28.803 112.215 29 110.527 29ZM114.608 21.4017C114.645 20.8013 114.664 19.9758 114.664 18.9252C114.664 17.8558 114.626 17.0022 114.551 16.3643C114.476 15.7264 114.298 15.1448 114.017 14.6195C113.735 14.0942 113.313 13.7377 112.75 13.5501C112.206 13.3438 111.465 13.2406 110.527 13.2406H107.966V25.623H110.527C111.934 25.623 112.957 25.2665 113.594 24.5536C114.139 23.972 114.476 22.9214 114.608 21.4017ZM120.396 14.9291H124.111L126.672 25.7918H127.319L129.88 14.9291H133.595L128.642 34.9098H124.955L126.503 29H123.858L120.396 14.9291ZM138.637 23.5686C138.656 24.4316 138.881 25.0601 139.313 25.4541C139.763 25.8294 140.401 26.017 141.226 26.017C142.971 26.017 144.528 25.9607 145.898 25.8481L146.686 25.7637L146.742 28.5497C144.585 29.075 142.634 29.3377 140.889 29.3377C138.769 29.3377 137.23 28.7749 136.273 27.6492C135.317 26.5235 134.838 24.6943 134.838 22.1615C134.838 17.1148 136.911 14.5914 141.058 14.5914C145.148 14.5914 147.193 16.7114 147.193 20.9514L146.911 23.5686H138.637ZM143.478 20.6982C143.478 19.5725 143.3 18.7939 142.943 18.3624C142.587 17.9121 141.958 17.687 141.058 17.687C140.176 17.687 139.547 17.9215 139.172 18.3905C138.816 18.8408 138.628 19.61 138.609 20.6982H143.478Z" fill="#779BE7"/>
</svg>
