<svg width="94" height="64" viewBox="0 0 94 64" fill="none" xmlns="http://www.w3.org/2000/svg">
<path d="M93.4321 34.3953C84.582 51.7548 67.0615 63.5 47 63.5C26.9385 63.5 9.41305 51.7466 0.567915 34.3937C0.194595 33.6513 8.7738e-05 32.831 8.7738e-05 31.9992C8.7738e-05 31.1673 0.194595 30.3471 0.567915 29.6047C9.41795 12.2452 26.9385 0.5 47 0.5C67.0615 0.5 84.5869 12.2534 93.4321 29.6063C93.8054 30.3487 93.9999 31.169 93.9999 32.0008C93.9999 32.8327 93.8054 33.6529 93.4321 34.3953V34.3953ZM47 8.375C42.3521 8.375 37.8086 9.76058 33.9441 12.3565C30.0795 14.9525 27.0675 18.6422 25.2888 22.9591C23.5102 27.276 23.0448 32.0262 23.9515 36.609C24.8583 41.1918 27.0965 45.4014 30.383 48.7054C33.6695 52.0094 37.8568 54.2595 42.4154 55.1711C46.9739 56.0826 51.699 55.6148 55.9931 53.8267C60.2871 52.0385 63.9573 49.0105 66.5395 45.1253C69.1217 41.2402 70.5 36.6726 70.5 32C70.5015 28.8971 69.8947 25.8243 68.7142 22.9573C67.5338 20.0903 65.8028 17.4853 63.6204 15.2912C61.4379 13.0972 58.8467 11.357 55.9948 10.1703C53.143 8.98354 50.0865 8.37349 47 8.375V8.375ZM47 47.75C45.6016 47.7304 44.2123 47.5212 42.8695 47.1282C43.9764 45.6161 44.5075 43.7553 44.3666 41.8832C44.2258 40.0112 43.4222 38.2519 42.1017 36.9243C40.7812 35.5968 39.0312 34.789 37.1691 34.6474C35.3069 34.5058 33.456 35.0397 31.9518 36.1524C31.0953 32.9801 31.2499 29.6177 32.3939 26.5384C33.5379 23.459 35.6136 20.8179 38.3288 18.9866C41.0441 17.1554 44.2623 16.2263 47.5303 16.3301C50.7984 16.4339 53.9518 17.5653 56.5467 19.5652C59.1416 21.5651 61.0473 24.3327 61.9956 27.4785C62.944 30.6242 62.8872 33.9898 61.8332 37.1014C60.7793 40.213 58.7812 42.914 56.1203 44.8243C53.4594 46.7345 50.2697 47.7577 47 47.75V47.75Z" fill="black"/>
</svg>
