<svg width="39" height="39" viewBox="0 0 39 39" fill="none" xmlns="http://www.w3.org/2000/svg">
<rect width="39" height="39" rx="5" fill="#F3F3F3"/>
<path d="M10.9641 13.9029C8.91917 13.9029 7.89668 14.5783 7.89668 15.9291C7.89668 16.5294 8.14996 16.9891 8.65651 17.308C9.16306 17.627 10.345 18.0866 12.2024 18.687C14.0785 19.2873 15.3918 19.9721 16.1422 20.7413C16.8927 21.4918 17.2679 22.655 17.2679 24.2309C17.2679 26.2384 16.6582 27.758 15.4387 28.7899C14.2192 29.8218 12.6245 30.3377 10.6546 30.3377C9.19121 30.3377 7.39951 30.1126 5.27949 29.6623L4.26638 29.4653L4.66037 26.4541C7.17437 26.7918 9.0974 26.9607 10.4294 26.9607C12.4181 26.9607 13.4125 26.1352 13.4125 24.4842C13.4125 23.8838 13.178 23.4148 12.7089 23.0771C12.2587 22.7394 11.3487 22.3736 9.97918 21.9796C7.80287 21.3605 6.26445 20.6288 5.36392 19.7845C4.48214 18.9215 4.04125 17.7302 4.04125 16.2105C4.04125 14.2969 4.62285 12.871 5.78604 11.9329C6.94924 10.9949 8.54394 10.5258 10.5702 10.5258C11.9585 10.5258 13.722 10.7135 15.8608 11.0887L16.8739 11.2857L16.5644 14.3531C13.919 14.053 12.0523 13.9029 10.9641 13.9029Z" fill="black"/>
<path d="M27.527 30H21.0825V10.8635H27.527C29.178 10.8635 30.5382 11.0418 31.6075 11.3982C32.6769 11.7359 33.5024 12.3082 34.084 13.1149C34.6844 13.9029 35.0971 14.8409 35.3223 15.9291C35.5474 16.9985 35.66 18.3962 35.66 20.1222C35.66 21.8482 35.5568 23.2835 35.3504 24.4279C35.144 25.5536 34.7501 26.5667 34.1685 27.4672C33.6056 28.349 32.7801 28.9963 31.692 29.409C30.6038 29.803 29.2155 30 27.527 30ZM31.6075 22.4017C31.6451 21.8013 31.6638 20.9758 31.6638 19.9252C31.6638 18.8558 31.6263 18.0022 31.5513 17.3643C31.4762 16.7264 31.298 16.1448 31.0166 15.6195C30.7351 15.0942 30.313 14.7377 29.7502 14.5501C29.2061 14.3438 28.465 14.2406 27.527 14.2406H24.9661V26.623H27.527C28.9341 26.623 29.9566 26.2665 30.5944 25.5536C31.1385 24.972 31.4762 23.9214 31.6075 22.4017Z" fill="#779BE7"/>
</svg>
