<svg width="15" height="16" viewBox="0 0 15 16" fill="none" xmlns="http://www.w3.org/2000/svg">
<path fill-rule="evenodd" clip-rule="evenodd" d="M7.49738 0.400024C5.72799 0.401004 4.01662 1.06947 2.66928 2.28588C1.32194 3.5023 0.426489 5.18735 0.143042 7.03973C-0.140405 8.8921 0.206632 10.791 1.12211 12.3969C2.03758 14.0028 3.46179 15.211 5.14008 15.8054C5.51033 15.8787 5.6498 15.6339 5.6498 15.4258C5.6498 15.2177 5.64239 14.6142 5.63992 13.9545C3.56648 14.4323 3.12835 13.0212 3.12835 13.0212C2.79018 12.1049 2.30144 11.8641 2.30144 11.8641C1.62511 11.3745 2.35205 11.3837 2.35205 11.3837C3.1012 11.44 3.49491 12.1992 3.49491 12.1992C4.1589 13.4074 5.23881 13.0579 5.66337 12.8537C5.73002 12.3419 5.92379 11.9937 6.1373 11.796C4.48102 11.597 2.74081 10.919 2.74081 7.89001C2.73055 7.10446 3.00539 6.34479 3.50848 5.76815C3.43196 5.56919 3.17648 4.76547 3.58129 3.67379C3.58129 3.67379 4.20703 3.46173 5.63129 4.48404C6.85292 4.12972 8.14184 4.12972 9.36347 4.48404C10.7865 3.46173 11.411 3.67379 11.411 3.67379C11.817 4.76286 11.5616 5.56657 11.485 5.76815C11.9897 6.34488 12.2651 7.10588 12.2539 7.89263C12.2539 10.9282 10.51 11.597 8.85128 11.7921C9.11787 12.0382 9.35607 12.5186 9.35607 13.2568C9.35607 14.3145 9.34743 15.1653 9.34743 15.4258C9.34743 15.6366 9.48195 15.8826 9.85961 15.8054C11.5381 15.2109 12.9624 14.0025 13.8779 12.3964C14.7934 10.7902 15.1402 8.89099 14.8565 7.03844C14.5727 5.18589 13.6768 3.50082 12.329 2.28461C10.9812 1.0684 9.26945 0.400383 7.49984 0.400024H7.49738Z" fill="black"/>
</svg>
