<svg width="42" height="28" viewBox="0 0 42 28" fill="none" xmlns="http://www.w3.org/2000/svg">
<path d="M3.15002 0.000128289C2.53076 0.000128289 1.9625 0.190781 1.47649 0.505003L19.4574 16.6076C20.4075 17.459 21.5573 17.459 22.5089 16.6076L40.5225 0.487903C40.0381 0.177016 39.4649 0 38.849 0H3.14905L3.15002 0.000128289ZM0.180461 2.18745C0.0713725 2.51615 0 2.86349 0 3.23091V24.7692C0 26.5591 1.40489 28 3.15004 28H38.85C40.5951 28 42 26.5591 42 24.7692V3.23091C42 2.86353 41.9286 2.5162 41.8195 2.18773L23.888 18.2398C22.2174 19.7344 19.7504 19.7196 18.0801 18.2231L0.181197 2.18742L0.180461 2.18745Z" fill="black"/>
</svg>
