<svg width="679" height="678" viewBox="0 0 679 678" fill="none" xmlns="http://www.w3.org/2000/svg">
<g opacity="0.35">
<circle cx="338" cy="340" r="337.5" stroke="black" stroke-opacity="0.75"/>
<circle r="6" transform="matrix(1 0 0 -1 94 574)" fill="black"/>
<circle r="6" transform="matrix(1 0 0 -1 22 221)" fill="black"/>
<circle r="6" transform="matrix(1 0 0 -1 673 307)" fill="black"/>
<circle r="6" transform="matrix(1 0 0 -1 287 6)" fill="black"/>
<circle r="6" transform="matrix(1 0 0 -1 505 634)" fill="black"/>
<circle cx="112" cy="89" r="4" fill="black"/>
<circle r="5" transform="matrix(1 0 0 -1 5 394)" fill="black"/>
<circle r="5" transform="matrix(1 0 0 -1 508 48)" fill="black"/>
<path d="M251 664.5C251 662.015 248.985 660 246.5 660C244.015 660 242 662.015 242 664.5C242 666.985 244.015 669 246.5 669C248.985 669 251 666.985 251 664.5Z" fill="black"/>
<path d="M647 485.5C647 483.015 644.985 481 642.5 481C640.015 481 638 483.015 638 485.5C638 487.985 640.015 490 642.5 490C644.985 490 647 487.985 647 485.5Z" fill="black"/>
<path d="M628 160.5C628 158.015 625.985 156 623.5 156C621.015 156 619 158.015 619 160.5C619 162.985 621.015 165 623.5 165C625.985 165 628 162.985 628 160.5Z" fill="black"/>
</g>
</svg>
