<svg width="16" height="16" viewBox="0 0 16 16" fill="none" xmlns="http://www.w3.org/2000/svg">
<path d="M10.0595 14.428C11.0948 14.0963 12.0212 13.5222 12.7715 12.7714C12.8108 12.7321 12.8497 12.6922 12.8881 12.6519C12.3817 12.4978 11.847 12.3668 11.2888 12.2622C11.1679 12.5938 11.033 12.9054 10.8861 13.1934C10.6427 13.671 10.3648 14.0867 10.0591 14.428L10.0595 14.428ZM1.26187 7.63638H4.01707C4.04634 6.47955 4.21291 5.39091 4.4865 4.43278C3.82504 4.3046 3.19478 4.14142 2.60436 3.94751C1.82338 4.98527 1.33524 6.25578 1.26183 7.63631L1.26187 7.63638ZM4.74427 7.63638H11.256C11.2267 6.51607 11.0621 5.46865 10.7938 4.55611C9.90095 4.69054 8.9635 4.76205 8.00016 4.76205C7.03678 4.76205 6.09936 4.69007 5.20656 4.55611C4.93823 5.46862 4.77359 6.51598 4.74432 7.63638H4.74427ZM11.9832 7.63638H14.7384C14.665 6.25585 14.1768 4.98585 13.3963 3.94758C12.8054 4.14149 12.1756 4.30471 11.5136 4.43285C11.7867 5.39145 11.9538 6.47951 11.983 7.63645L11.9832 7.63638ZM14.7384 8.36357H11.9832C11.9539 9.52039 11.7874 10.6086 11.5138 11.5672C12.1752 11.6953 12.8055 11.8585 13.3959 12.0524C14.1764 11.0142 14.665 9.74417 14.738 8.36363L14.7384 8.36357ZM11.256 8.36357H4.74427C4.77354 9.48387 4.93818 10.5313 5.20651 11.4438C6.09932 11.3099 7.03678 11.2379 8.00011 11.2379C8.96344 11.2379 9.90091 11.3094 10.7937 11.4438C11.062 10.5313 11.2262 9.48397 11.256 8.36357H11.256ZM4.01707 8.36357H1.26187C1.33531 9.7441 1.82348 11.0146 2.6044 12.0524C3.19482 11.8585 3.82508 11.6952 4.48654 11.5671C4.21342 10.6085 4.04638 9.5199 4.01711 8.3635L4.01707 8.36357ZM10.5585 12.1417C9.74687 12.0265 8.88907 11.965 8.00014 11.965C7.11071 11.965 6.25347 12.0265 5.44174 12.1422C5.53966 12.3975 5.64668 12.639 5.76143 12.8641C6.35471 14.0281 7.1477 14.7481 8.00023 14.7481C8.85277 14.7481 9.6457 14.0281 10.239 12.8641C10.3538 12.6385 10.4608 12.3975 10.5587 12.1417H10.5585ZM4.7112 12.2622C4.15298 12.3673 3.61823 12.4978 3.11227 12.6524C3.15066 12.6927 3.18956 12.7326 3.22894 12.7715C3.9792 13.5222 4.90614 14.0963 5.94094 14.428C5.63515 14.0867 5.35724 13.6711 5.11391 13.1934C4.96703 12.9054 4.83214 12.5939 4.7112 12.2622V12.2622ZM10.0595 1.5719C10.3653 1.91321 10.6432 2.32888 10.8865 2.80649C11.0334 3.09452 11.1683 3.40602 11.2892 3.73769C11.8474 3.63258 12.3822 3.50201 12.8885 3.34796C12.8502 3.30764 12.8112 3.2678 12.7719 3.22843C12.0216 2.47769 11.0947 1.90364 10.0599 1.57189L10.0595 1.5719ZM4.7112 3.73764C4.83214 3.40597 4.96704 3.09441 5.11391 2.80644C5.3573 2.32884 5.63522 1.91316 5.94094 1.57185C4.90558 1.90352 3.9792 2.47764 3.22894 3.22838C3.18956 3.26776 3.15071 3.3076 3.11227 3.34745C3.61867 3.50151 4.15342 3.63255 4.7116 3.73771L4.7112 3.73764ZM10.2389 3.1357C9.64566 1.97169 8.85267 1.2517 8.00014 1.2517C7.1476 1.2517 6.35467 1.9717 5.76134 3.1357C5.6466 3.36133 5.53956 3.60226 5.44164 3.85764C6.25331 3.97284 7.11058 4.03477 8.00004 4.03477C8.88947 4.03477 9.74671 3.97331 10.5584 3.8581C10.4605 3.60274 10.3535 3.36128 10.2388 3.1357H10.2389ZM13.2856 13.2849C11.9329 14.6376 10.0643 15.4742 8.00027 15.4742C5.93627 15.4742 4.0676 14.6376 2.71494 13.2849C1.36227 11.9322 0.525604 10.0636 0.525604 7.99957C0.525604 5.93557 1.36227 4.0669 2.71494 2.71424C4.0676 1.36157 5.93627 0.524902 8.00027 0.524902C10.0643 0.524902 11.9329 1.36157 13.2856 2.71424C14.6383 4.0669 15.4749 5.93557 15.4749 7.99957C15.4749 10.0636 14.6383 11.9322 13.2856 13.2849V13.2849Z" fill="black"/>
</svg>
